<svg width="30" height="30" viewBox="0 0 30 30" fill="none" xmlns="http://www.w3.org/2000/svg">
<mask id="mask0" mask-type="alpha" maskUnits="userSpaceOnUse" x="4" y="7" width="22" height="16">
<path fill-rule="evenodd" clip-rule="evenodd" d="M15 7.5C10 7.5 5.73 10.61 4 15C5.73 19.39 10 22.5 15 22.5C20 22.5 24.27 19.39 26 15C24.27 10.61 20 7.5 15 7.5ZM15 20C12.24 20 10 17.76 10 15C10 12.24 12.24 10 15 10C17.76 10 20 12.24 20 15C20 17.76 17.76 20 15 20ZM15 12C13.34 12 12 13.34 12 15C12 16.66 13.34 18 15 18C16.66 18 18 16.66 18 15C18 13.34 16.66 12 15 12Z" fill="white"/>
</mask>
<g mask="url(#mask0)">
<rect x="2" y="2" width="26" height="26" fill="white"/>
</g>
</svg>
