<svg width="30" height="30" viewBox="0 0 30 30" fill="none" xmlns="http://www.w3.org/2000/svg">
<mask id="mask0" mask-type="alpha" maskUnits="userSpaceOnUse" x="6" y="6" width="18" height="18">
<path fill-rule="evenodd" clip-rule="evenodd" d="M18.5 17H17.71L17.43 16.73C18.41 15.59 19 14.11 19 12.5C19 8.91 16.09 6 12.5 6C8.91 6 6 8.91 6 12.5C6 16.09 8.91 19 12.5 19C14.11 19 15.59 18.41 16.73 17.43L17 17.71V18.5L22 23.49L23.49 22L18.5 17ZM12.5 17C10.01 17 8 14.99 8 12.5C8 10.01 10.01 8 12.5 8C14.99 8 17 10.01 17 12.5C17 14.99 14.99 17 12.5 17Z" fill="white"/>
</mask>
<g mask="url(#mask0)">
<rect x="2" y="2" width="26" height="26" fill="#D8D8D8"/>
</g>
</svg>
