<svg width="29" height="28" viewBox="0 0 29 28" fill="none" xmlns="http://www.w3.org/2000/svg">
<mask id="mask0" mask-type="alpha" maskUnits="userSpaceOnUse" x="7" y="6" width="16" height="16">
<path fill-rule="evenodd" clip-rule="evenodd" d="M21.9257 9.10684C21.7353 8.61638 21.4814 8.20092 21.0659 7.78546C20.6505 7.37001 20.235 7.11612 19.7445 6.9257C19.2714 6.74105 18.7232 6.61411 17.9327 6.57949L17.9193 6.5789C17.1335 6.54474 16.871 6.53333 14.8514 6.53333C12.8203 6.53333 12.5664 6.5391 11.7701 6.57949C10.9738 6.61411 10.4314 6.74105 9.95823 6.9257C9.46776 7.11612 9.05231 7.37001 8.63685 7.78546C8.22139 8.20092 7.9675 8.61638 7.77709 9.10684C7.59244 9.58 7.4655 10.1282 7.43087 10.9187L7.43029 10.9321C7.39612 11.7179 7.38471 11.9803 7.38471 14C7.38471 16.0311 7.39048 16.285 7.43087 17.0813C7.4655 17.8776 7.59244 18.42 7.77709 18.8931C7.9675 19.3836 8.22139 19.7991 8.63685 20.2145C9.05231 20.63 9.46776 20.8839 9.95823 21.0743C10.4314 21.2589 10.9796 21.3859 11.7701 21.4205L11.7835 21.4211C12.5693 21.4552 12.8317 21.4667 14.8514 21.4667C16.8825 21.4667 17.1364 21.4609 17.9327 21.4205C18.729 21.3859 19.2714 21.2589 19.7445 21.0743C20.235 20.8839 20.6505 20.63 21.0659 20.2145C21.4814 19.7991 21.7353 19.3836 21.9257 18.8931C22.1103 18.42 22.2373 17.8718 22.2719 17.0813L22.2725 17.0679C22.3066 16.2821 22.318 16.0197 22.318 14C22.318 11.9689 22.3123 11.715 22.2719 10.9187C22.2373 10.1224 22.1103 9.58 21.9257 9.10684ZM20.4092 16.7578C20.3776 17.4222 20.2668 17.7861 20.1719 18.0233C20.0506 18.3397 19.8977 18.5717 19.6604 18.809C19.4231 19.0463 19.1964 19.194 18.8747 19.3205C18.6322 19.4154 18.2736 19.5262 17.6092 19.5578L17.5748 19.5593C16.8796 19.5898 16.6466 19.6 14.8514 19.6C13.0269 19.6 12.8107 19.5947 12.0936 19.5578C11.4292 19.5262 11.0653 19.4154 10.828 19.3205C10.5116 19.1992 10.2796 19.0463 10.0423 18.809C9.80505 18.5717 9.65741 18.345 9.53085 18.0233C9.43594 17.7808 9.3252 17.4222 9.29356 16.7578L9.29231 16.7293C9.26165 16.0294 9.25138 15.795 9.25138 14C9.25138 12.1808 9.25665 11.9593 9.29356 11.2422C9.3252 10.5778 9.43594 10.2139 9.53085 9.97664C9.65213 9.66026 9.80505 9.42824 10.0423 9.19095C10.2796 8.95366 10.5064 8.80602 10.828 8.67946C11.0706 8.58455 11.4292 8.47381 12.0936 8.44218L12.1221 8.44093C12.822 8.41026 13.0563 8.39999 14.8514 8.39999C16.6706 8.39999 16.8921 8.40526 17.6092 8.44218C18.2736 8.47381 18.6374 8.58455 18.8747 8.67946C19.1911 8.80075 19.4231 8.95366 19.6604 9.19095C19.8977 9.42824 20.0454 9.65498 20.1719 9.97664C20.2668 10.2192 20.3776 10.5778 20.4092 11.2422L20.4104 11.2707C20.4411 11.9706 20.4514 12.205 20.4514 14C20.4514 15.8018 20.441 16.0363 20.4101 16.7374L20.4092 16.7578ZM19.518 10.2667C19.518 10.7821 19.1002 11.2 18.5847 11.2C18.0692 11.2 17.6514 10.7821 17.6514 10.2667C17.6514 9.75119 18.0692 9.33333 18.5847 9.33333C19.1002 9.33333 19.518 9.75119 19.518 10.2667ZM14.8514 10.2667C12.791 10.2667 11.118 11.9396 11.118 14C11.118 16.0603 12.791 17.7333 14.8514 17.7333C16.9117 17.7333 18.5847 16.0603 18.5847 14C18.5847 11.9396 16.9117 10.2667 14.8514 10.2667ZM12.9847 14C12.9847 15.0327 13.823 15.8667 14.8514 15.8667C15.8798 15.8667 16.718 15.0284 16.718 14C16.718 12.9673 15.8841 12.1333 14.8514 12.1333C13.8187 12.1333 12.9847 12.9716 12.9847 14Z" fill="white"/>
</mask>
<g mask="url(#mask0)">
<rect x="2.71805" y="1.8667" width="24.2667" height="24.2667" fill="#D8D8D8"/>
</g>
</svg>
