<svg width="80" height="20" viewBox="0 0 80 20" fill="none" xmlns="http://www.w3.org/2000/svg">
<mask id="mask0" mask-type="alpha" maskUnits="userSpaceOnUse" x="0" y="0" width="80" height="20">
<path fill-rule="evenodd" clip-rule="evenodd" d="M0 4C0 1.79086 1.79086 0 4 0H76C78.2091 0 80 1.79086 80 4V16C80 18.2091 78.2091 20 76 20H4C1.79086 20 0 18.2091 0 16V4Z" fill="white"/>
</mask>
<g mask="url(#mask0)">
<rect opacity="0.3" width="80" height="20" fill="black"/>
<path d="M13.7527 10.7412H12.9177V13H11.3752V6.60156H13.8933C14.6521 6.60156 15.2453 6.77002 15.6731 7.10693C16.1008 7.44385 16.3147 7.91992 16.3147 8.53516C16.3147 8.98047 16.2238 9.34961 16.0422 9.64258C15.8635 9.93555 15.5822 10.1729 15.1985 10.3545L16.5344 12.9341V13H14.882L13.7527 10.7412ZM12.9177 9.55029H13.8933C14.1862 9.55029 14.406 9.47412 14.5525 9.32178C14.7019 9.1665 14.7766 8.95117 14.7766 8.67578C14.7766 8.40039 14.7019 8.18506 14.5525 8.02979C14.403 7.87158 14.1833 7.79248 13.8933 7.79248H12.9177V9.55029ZM22.3396 10.2886H19.9138V11.8135H22.779V13H18.3713V6.60156H22.7878V7.79248H19.9138V9.1416H22.3396V10.2886ZM26.0749 10.8291V13H24.5324V6.60156H27.0857C27.5749 6.60156 28.007 6.69238 28.382 6.87402C28.76 7.05273 29.0515 7.30908 29.2566 7.64307C29.4646 7.97412 29.5686 8.35059 29.5686 8.77246C29.5686 9.39648 29.3444 9.896 28.8962 10.271C28.4509 10.6431 27.8386 10.8291 27.0593 10.8291H26.0749ZM26.0749 9.63818H27.0857C27.3845 9.63818 27.6115 9.56348 27.7668 9.41406C27.925 9.26465 28.0041 9.05371 28.0041 8.78125C28.0041 8.48242 27.9235 8.24365 27.7624 8.06494C27.6013 7.88623 27.3816 7.79541 27.1032 7.79248H26.0749V9.63818ZM36.9382 9.93262C36.9382 10.5566 36.8225 11.1089 36.591 11.5894C36.3596 12.0698 36.03 12.4404 35.6023 12.7012C35.1775 12.959 34.6926 13.0879 34.1477 13.0879C33.6027 13.0879 33.1194 12.9634 32.6975 12.7144C32.2756 12.4624 31.946 12.1035 31.7087 11.6377C31.4743 11.1719 31.3513 10.6372 31.3396 10.0337V9.67334C31.3396 9.04639 31.4538 8.49414 31.6823 8.0166C31.9138 7.53613 32.2434 7.16553 32.6711 6.90479C33.1018 6.64404 33.591 6.51367 34.1389 6.51367C34.6809 6.51367 35.1643 6.64258 35.5891 6.90039C36.0139 7.1582 36.3435 7.52588 36.5778 8.00342C36.8152 8.47803 36.9353 9.02295 36.9382 9.63818V9.93262ZM35.3694 9.66455C35.3694 9.02881 35.2624 8.54688 35.0485 8.21875C34.8376 7.8877 34.5344 7.72217 34.1389 7.72217C33.3654 7.72217 32.9568 8.30225 32.9128 9.4624L32.9084 9.93262C32.9084 10.5596 33.0124 11.0415 33.2204 11.3784C33.4284 11.7153 33.7375 11.8838 34.1477 11.8838C34.5373 11.8838 34.8376 11.7183 35.0485 11.3872C35.2595 11.0562 35.3664 10.5801 35.3694 9.95898V9.66455ZM41.236 10.7412H40.4011V13H38.8586V6.60156H41.3767C42.1355 6.60156 42.7287 6.77002 43.1565 7.10693C43.5842 7.44385 43.7981 7.91992 43.7981 8.53516C43.7981 8.98047 43.7072 9.34961 43.5256 9.64258C43.3469 9.93555 43.0656 10.1729 42.6819 10.3545L44.0178 12.9341V13H42.3654L41.236 10.7412ZM40.4011 9.55029H41.3767C41.6696 9.55029 41.8894 9.47412 42.0359 9.32178C42.1853 9.1665 42.26 8.95117 42.26 8.67578C42.26 8.40039 42.1853 8.18506 42.0359 8.02979C41.8864 7.87158 41.6667 7.79248 41.3767 7.79248H40.4011V9.55029ZM50.6579 7.79248H48.7375V13H47.195V7.79248H45.3098V6.60156H50.6579V7.79248ZM55.5446 11.8047H53.4309L53.0617 13H51.4138L53.7605 6.60156H55.2107L57.5749 13H55.9182L55.5446 11.8047ZM53.8 10.6138H55.1755L54.4856 8.39453L53.8 10.6138ZM64.3117 12.209C64.0744 12.4727 63.7273 12.6851 63.2702 12.8462C62.8132 13.0073 62.3122 13.0879 61.7673 13.0879C60.9294 13.0879 60.26 12.8315 59.759 12.3188C59.258 11.8062 58.99 11.0928 58.9548 10.1787L58.9504 9.625C58.9504 8.99512 59.0617 8.4458 59.2844 7.97705C59.507 7.50537 59.8249 7.14355 60.238 6.8916C60.654 6.63672 61.1345 6.50928 61.6794 6.50928C62.4763 6.50928 63.0945 6.69238 63.5339 7.05859C63.9763 7.42188 64.2341 7.96533 64.3073 8.68896H62.822C62.7693 8.33154 62.655 8.07666 62.4792 7.92432C62.3034 7.77197 62.0544 7.6958 61.7321 7.6958C61.3454 7.6958 61.0466 7.85986 60.8357 8.18799C60.6247 8.51611 60.5178 8.98486 60.5149 9.59424V9.98096C60.5149 10.6196 60.6233 11.1001 60.8401 11.4224C61.0598 11.7417 61.404 11.9014 61.8728 11.9014C62.2741 11.9014 62.573 11.812 62.7693 11.6333V10.6401H61.697V9.58105H64.3117V12.209ZM70.3015 10.2886H67.8757V11.8135H70.7409V13H66.3332V6.60156H70.7497V7.79248H67.8757V9.1416H70.3015V10.2886Z" fill="white"/>
</g>
</svg>
