<svg width="95" height="20" viewBox="0 0 95 20" fill="none" xmlns="http://www.w3.org/2000/svg">
<mask id="mask0" mask-type="alpha" maskUnits="userSpaceOnUse" x="0" y="0" width="95" height="20">
<path fill-rule="evenodd" clip-rule="evenodd" d="M0 4C0 1.79086 1.79086 0 4 0H91C93.2091 0 95 1.79086 95 4V16C95 18.2091 93.2091 20 91 20H4C1.79086 20 0 18.2091 0 16V4Z" fill="white"/>
</mask>
<g mask="url(#mask0)">
<rect width="95" height="20" fill="#F74236"/>
<path d="M18.2025 11.8047H16.0888L15.7196 13H14.0717L16.4183 6.60156H17.8685L20.2328 13H18.5761L18.2025 11.8047ZM16.4579 10.6138H17.8334L17.1434 8.39453L16.4579 10.6138ZM21.828 13V6.60156H23.889C24.4545 6.60156 24.9628 6.73047 25.414 6.98828C25.8651 7.24316 26.2167 7.60498 26.4686 8.07373C26.7235 8.53955 26.8524 9.0625 26.8554 9.64258V9.93701C26.8554 10.5229 26.7308 11.0488 26.4818 11.5146C26.2357 11.9775 25.8871 12.3408 25.4359 12.6045C24.9877 12.8652 24.4867 12.9971 23.933 13H21.828ZM23.3705 7.79248V11.8135H23.9066C24.349 11.8135 24.6889 11.6567 24.9262 11.3433C25.1635 11.0269 25.2821 10.5581 25.2821 9.93701V9.66016C25.2821 9.04199 25.1635 8.57617 24.9262 8.2627C24.6889 7.94922 24.3432 7.79248 23.889 7.79248H23.3705ZM31.1576 11.2598L32.432 6.60156H34.1547L32.0014 13H30.3139L28.1781 6.60156H29.8876L31.1576 11.2598ZM39.7182 10.2886H37.2924V11.8135H40.1576V13H35.7499V6.60156H40.1664V7.79248H37.2924V9.1416H39.7182V10.2886ZM44.2885 10.7412H43.4535V13H41.911V6.60156H44.4291C45.1879 6.60156 45.7811 6.77002 46.2089 7.10693C46.6366 7.44385 46.8505 7.91992 46.8505 8.53516C46.8505 8.98047 46.7597 9.34961 46.578 9.64258C46.3993 9.93555 46.1181 10.1729 45.7343 10.3545L47.0702 12.9341V13H45.4179L44.2885 10.7412ZM43.4535 9.55029H44.4291C44.7221 9.55029 44.9418 9.47412 45.0883 9.32178C45.2377 9.1665 45.3124 8.95117 45.3124 8.67578C45.3124 8.40039 45.2377 8.18506 45.0883 8.02979C44.9389 7.87158 44.7191 7.79248 44.4291 7.79248H43.4535V9.55029ZM53.7103 7.79248H51.7899V13H50.2474V7.79248H48.3622V6.60156H53.7103V7.79248ZM57.1337 13H55.5956V6.60156H57.1337V13ZM62.6312 11.2993C62.6312 11.0737 62.5507 10.8979 62.3895 10.772C62.2313 10.646 61.9515 10.5156 61.5502 10.3809C61.1488 10.2461 60.8207 10.1157 60.5658 9.98975C59.7367 9.58252 59.3222 9.02295 59.3222 8.31104C59.3222 7.95654 59.4247 7.64453 59.6298 7.375C59.8378 7.10254 60.1307 6.8916 60.5087 6.74219C60.8866 6.58984 61.3114 6.51367 61.7831 6.51367C62.2431 6.51367 62.6547 6.5957 63.018 6.75977C63.3842 6.92383 63.6683 7.1582 63.8705 7.46289C64.0726 7.76465 64.1737 8.11035 64.1737 8.5H62.6356C62.6356 8.23926 62.5551 8.03711 62.3939 7.89355C62.2357 7.75 62.0204 7.67822 61.7479 7.67822C61.4725 7.67822 61.2543 7.73975 61.0932 7.86279C60.9349 7.98291 60.8558 8.13672 60.8558 8.32422C60.8558 8.48828 60.9437 8.6377 61.1195 8.77246C61.2953 8.9043 61.6044 9.04199 62.0468 9.18555C62.4891 9.32617 62.8524 9.47852 63.1366 9.64258C63.828 10.041 64.1737 10.5903 64.1737 11.2905C64.1737 11.8501 63.9628 12.2896 63.5409 12.6089C63.119 12.9282 62.5404 13.0879 61.8051 13.0879C61.2865 13.0879 60.8163 12.9956 60.3944 12.811C59.9755 12.6235 59.6591 12.3687 59.4452 12.0464C59.2343 11.7212 59.1288 11.3477 59.1288 10.9258H60.6757C60.6757 11.2686 60.7636 11.522 60.9393 11.686C61.1181 11.8472 61.4066 11.9277 61.8051 11.9277C62.0599 11.9277 62.2606 11.8735 62.4071 11.7651C62.5565 11.6538 62.6312 11.4985 62.6312 11.2993ZM67.7333 13H66.1952V6.60156H67.7333V13ZM75.2743 13H73.7406L71.473 9.01855V13H69.9306V6.60156H71.473L73.7362 10.583V6.60156H75.2743V13ZM82.6132 12.209C82.3759 12.4727 82.0287 12.6851 81.5717 12.8462C81.1146 13.0073 80.6137 13.0879 80.0687 13.0879C79.2308 13.0879 78.5614 12.8315 78.0604 12.3188C77.5595 11.8062 77.2914 11.0928 77.2562 10.1787L77.2518 9.625C77.2518 8.99512 77.3632 8.4458 77.5858 7.97705C77.8085 7.50537 78.1264 7.14355 78.5394 6.8916C78.9555 6.63672 79.4359 6.50928 79.9808 6.50928C80.7777 6.50928 81.3959 6.69238 81.8353 7.05859C82.2777 7.42188 82.5355 7.96533 82.6088 8.68896H81.1234C81.0707 8.33154 80.9564 8.07666 80.7807 7.92432C80.6049 7.77197 80.3558 7.6958 80.0336 7.6958C79.6469 7.6958 79.348 7.85986 79.1371 8.18799C78.9262 8.51611 78.8192 8.98486 78.8163 9.59424V9.98096C78.8163 10.6196 78.9247 11.1001 79.1415 11.4224C79.3612 11.7417 79.7055 11.9014 80.1742 11.9014C80.5756 11.9014 80.8744 11.812 81.0707 11.6333V10.6401H79.9984V9.58105H82.6132V12.209Z" fill="white"/>
</g>
</svg>
