<svg width="30" height="30" viewBox="0 0 30 30" fill="none" xmlns="http://www.w3.org/2000/svg">
<mask id="mask0" mask-type="alpha" maskUnits="userSpaceOnUse" x="7" y="13" width="16" height="4">
<path fill-rule="evenodd" clip-rule="evenodd" d="M9 13C7.9 13 7 13.9 7 15C7 16.1 7.9 17 9 17C10.1 17 11 16.1 11 15C11 13.9 10.1 13 9 13ZM21 13C19.9 13 19 13.9 19 15C19 16.1 19.9 17 21 17C22.1 17 23 16.1 23 15C23 13.9 22.1 13 21 13ZM15 13C13.9 13 13 13.9 13 15C13 16.1 13.9 17 15 17C16.1 17 17 16.1 17 15C17 13.9 16.1 13 15 13Z" fill="white"/>
</mask>
<g mask="url(#mask0)">
<rect x="2" y="2" width="26" height="26" fill="#D8D8D8"/>
</g>
</svg>
