<svg width="20" height="18" viewBox="0 0 20 18" fill="none" xmlns="http://www.w3.org/2000/svg">
<mask id="mask0" mask-type="alpha" maskUnits="userSpaceOnUse" x="0" y="0" width="20" height="18">
<path fill-rule="evenodd" clip-rule="evenodd" d="M7.27273 9.13974C7.75455 9.2677 8.04545 9.77038 7.91818 10.2548L6.73636 14.6693C6.60909 15.1628 6.10909 15.4462 5.62727 15.3182C5.13636 15.1902 4.85455 14.6876 5 14.2032L6.16364 9.78866C6.29091 9.29512 6.79091 9.01178 7.27273 9.13974ZM10.9091 9.13974C11.3909 9.2677 11.6818 9.77038 11.5545 10.2548L9.67273 17.3198C9.54545 17.8225 9.04545 18.0967 8.55455 17.9687C8.07273 17.8225 7.78182 17.3381 7.90909 16.8445L9.8 9.78866C9.92727 9.29512 10.4273 9.01178 10.9091 9.13974ZM14.5455 9.13974C15.0273 9.2677 15.3182 9.77038 15.1909 10.2548L14.0091 14.6693C13.8818 15.1628 13.3818 15.4462 12.9 15.3182C12.4091 15.1902 12.1273 14.6876 12.2727 14.2032L13.4364 9.78866C13.5636 9.29512 14.0636 9.01178 14.5455 9.13974ZM14.5455 7.31179V6.39782C14.5455 3.87395 12.5104 1.82795 10 1.82795C7.72727 1.82795 5.86364 3.49138 5.50909 5.6575C5.20909 5.54782 4.88182 5.48384 4.54545 5.48384C3.03922 5.48384 1.81818 6.71144 1.81818 8.22577C1.81818 9.24028 2.36364 10.1268 3.18182 10.6021V10.593C3.63636 10.8489 3.76364 11.4247 3.51818 11.8451C3.26364 12.2747 2.72727 12.43 2.27273 12.1741V12.1833C0.909091 11.3973 0 9.91662 0 8.22577C0 5.7019 2.03507 3.6559 4.54545 3.6559C5.45455 1.50806 7.54545 0 10 0C13.1182 0 15.6727 2.43117 15.9091 5.51126L16.3636 5.48384C18.3719 5.48384 20 7.12064 20 9.13974C20 10.5107 19.2727 11.6714 18.1818 12.3021C17.7273 12.5489 17.1909 12.4026 16.9364 11.9639C16.6909 11.5252 16.8182 10.9677 17.2727 10.7118V10.7209C17.8182 10.4102 18.1818 9.81608 18.1818 9.13974C18.1818 8.13019 17.3678 7.31179 16.3636 7.31179H14.5455Z" fill="white"/>
</mask>
<g mask="url(#mask0)">
<rect x="-3" y="-4" width="26" height="26" fill="#D8D8D8"/>
</g>
</svg>
