<svg width="55" height="25" viewBox="0 0 55 25" fill="none" xmlns="http://www.w3.org/2000/svg">
<mask id="mask0" mask-type="alpha" maskUnits="userSpaceOnUse" x="0" y="0" width="55" height="25">
<path fill-rule="evenodd" clip-rule="evenodd" d="M0 4C0 1.79086 1.79086 0 4 0H51C53.2091 0 55 1.79086 55 4V21C55 23.2091 53.2091 25 51 25H4C1.79086 25 0 23.2091 0 21V4Z" fill="white"/>
</mask>
<g mask="url(#mask0)">
<rect width="55" height="25" fill="#F74236"/>
<path d="M17.7686 13.168H15.0049V16H13.291V8.89062H18.0469V10.2139H15.0049V11.8496H17.7686V13.168ZM26.0303 12.5918C26.0303 13.2852 25.9017 13.8988 25.6445 14.4326C25.3874 14.9665 25.0212 15.3783 24.5459 15.668C24.0739 15.9544 23.5352 16.0977 22.9297 16.0977C22.3242 16.0977 21.7871 15.9593 21.3184 15.6826C20.8496 15.4027 20.4834 15.0039 20.2197 14.4863C19.9593 13.9688 19.8226 13.3747 19.8096 12.7041V12.3037C19.8096 11.6071 19.9365 10.9935 20.1904 10.4629C20.4476 9.92904 20.8138 9.51725 21.2891 9.22754C21.7676 8.93783 22.3112 8.79297 22.9199 8.79297C23.5221 8.79297 24.0592 8.9362 24.5312 9.22266C25.0033 9.50911 25.3695 9.91764 25.6299 10.4482C25.8936 10.9756 26.027 11.5811 26.0303 12.2646V12.5918ZM24.2871 12.2939C24.2871 11.5876 24.1683 11.0521 23.9307 10.6875C23.6963 10.3197 23.3594 10.1357 22.9199 10.1357C22.0605 10.1357 21.6064 10.7803 21.5576 12.0693L21.5527 12.5918C21.5527 13.2884 21.6683 13.8239 21.8994 14.1982C22.1305 14.5726 22.474 14.7598 22.9297 14.7598C23.3626 14.7598 23.6963 14.5758 23.9307 14.208C24.165 13.8402 24.2839 13.3112 24.2871 12.6211V12.2939ZM34.1846 12.5918C34.1846 13.2852 34.056 13.8988 33.7988 14.4326C33.5417 14.9665 33.1755 15.3783 32.7002 15.668C32.2282 15.9544 31.6895 16.0977 31.084 16.0977C30.4785 16.0977 29.9414 15.9593 29.4727 15.6826C29.0039 15.4027 28.6377 15.0039 28.374 14.4863C28.1136 13.9688 27.9769 13.3747 27.9639 12.7041V12.3037C27.9639 11.6071 28.0908 10.9935 28.3447 10.4629C28.6019 9.92904 28.9681 9.51725 29.4434 9.22754C29.9219 8.93783 30.4655 8.79297 31.0742 8.79297C31.6764 8.79297 32.2135 8.9362 32.6855 9.22266C33.1576 9.50911 33.5238 9.91764 33.7842 10.4482C34.0479 10.9756 34.1813 11.5811 34.1846 12.2646V12.5918ZM32.4414 12.2939C32.4414 11.5876 32.3226 11.0521 32.085 10.6875C31.8506 10.3197 31.5137 10.1357 31.0742 10.1357C30.2148 10.1357 29.7607 10.7803 29.7119 12.0693L29.707 12.5918C29.707 13.2884 29.8226 13.8239 30.0537 14.1982C30.2848 14.5726 30.6283 14.7598 31.084 14.7598C31.5169 14.7598 31.8506 14.5758 32.085 14.208C32.3193 13.8402 32.4382 13.3112 32.4414 12.6211V12.2939ZM36.3184 16V8.89062H38.6084C39.2367 8.89062 39.8014 9.03385 40.3027 9.32031C40.804 9.60352 41.1947 10.0055 41.4746 10.5264C41.7578 11.0439 41.901 11.625 41.9043 12.2695V12.5967C41.9043 13.2477 41.766 13.832 41.4893 14.3496C41.2158 14.8639 40.8285 15.2676 40.3271 15.5605C39.8291 15.8503 39.2725 15.9967 38.6572 16H36.3184ZM38.0322 10.2139V14.6816H38.6279C39.1195 14.6816 39.4971 14.5075 39.7607 14.1592C40.0244 13.8076 40.1562 13.2868 40.1562 12.5967V12.2891C40.1562 11.6022 40.0244 11.0846 39.7607 10.7363C39.4971 10.388 39.113 10.2139 38.6084 10.2139H38.0322Z" fill="white"/>
</g>
</svg>
