<svg width="60" height="20" viewBox="0 0 60 20" fill="none" xmlns="http://www.w3.org/2000/svg">
<mask id="mask0" mask-type="alpha" maskUnits="userSpaceOnUse" x="0" y="0" width="60" height="20">
<path fill-rule="evenodd" clip-rule="evenodd" d="M0 4C0 1.79086 1.79086 0 4 0H56C58.2091 0 60 1.79086 60 4V16C60 18.2091 58.2091 20 56 20H4C1.79086 20 0 18.2091 0 16V4Z" fill="white"/>
</mask>
<g mask="url(#mask0)">
<rect opacity="0.3" width="60" height="20" fill="black"/>
<path d="M11.7834 11.2993C11.7834 11.0737 11.7028 10.8979 11.5417 10.772C11.3835 10.646 11.1037 10.5156 10.7023 10.3809C10.3009 10.2461 9.97282 10.1157 9.71794 9.98975C8.88884 9.58252 8.47429 9.02295 8.47429 8.31104C8.47429 7.95654 8.57683 7.64453 8.7819 7.375C8.98991 7.10254 9.28288 6.8916 9.66081 6.74219C10.0387 6.58984 10.4635 6.51367 10.9352 6.51367C11.3952 6.51367 11.8068 6.5957 12.1701 6.75977C12.5363 6.92383 12.8205 7.1582 13.0226 7.46289C13.2248 7.76465 13.3258 8.11035 13.3258 8.5H11.7878C11.7878 8.23926 11.7072 8.03711 11.5461 7.89355C11.3879 7.75 11.1725 7.67822 10.9001 7.67822C10.6247 7.67822 10.4064 7.73975 10.2453 7.86279C10.0871 7.98291 10.008 8.13672 10.008 8.32422C10.008 8.48828 10.0959 8.6377 10.2717 8.77246C10.4474 8.9043 10.7565 9.04199 11.1989 9.18555C11.6413 9.32617 12.0046 9.47852 12.2887 9.64258C12.9801 10.041 13.3258 10.5903 13.3258 11.2905C13.3258 11.8501 13.1149 12.2896 12.693 12.6089C12.2712 12.9282 11.6925 13.0879 10.9572 13.0879C10.4386 13.0879 9.96843 12.9956 9.54655 12.811C9.12761 12.6235 8.8112 12.3687 8.59733 12.0464C8.3864 11.7212 8.28093 11.3477 8.28093 10.9258H9.8278C9.8278 11.2686 9.91569 11.522 10.0915 11.686C10.2702 11.8472 10.5588 11.9277 10.9572 11.9277C11.2121 11.9277 11.4128 11.8735 11.5592 11.7651C11.7087 11.6538 11.7834 11.4985 11.7834 11.2993ZM20.2648 7.79248H18.3444V13H16.8019V7.79248H14.9167V6.60156H20.2648V7.79248ZM24.422 10.7412H23.5871V13H22.0446V6.60156H24.5627C25.3215 6.60156 25.9147 6.77002 26.3425 7.10693C26.7702 7.44385 26.9841 7.91992 26.9841 8.53516C26.9841 8.98047 26.8932 9.34961 26.7116 9.64258C26.5329 9.93555 26.2516 10.1729 25.8678 10.3545L27.2038 12.9341V13H25.5514L24.422 10.7412ZM23.5871 9.55029H24.5627C24.8556 9.55029 25.0754 9.47412 25.2218 9.32178C25.3713 9.1665 25.446 8.95117 25.446 8.67578C25.446 8.40039 25.3713 8.18506 25.2218 8.02979C25.0724 7.87158 24.8527 7.79248 24.5627 7.79248H23.5871V9.55029ZM33.009 10.2886H30.5832V11.8135H33.4484V13H29.0407V6.60156H33.4572V7.79248H30.5832V9.1416H33.009V10.2886ZM39.1701 10.2886H36.7443V11.8135H39.6095V13H35.2018V6.60156H39.6183V7.79248H36.7443V9.1416H39.1701V10.2886ZM46.4738 7.79248H44.5534V13H43.0109V7.79248H41.1257V6.60156H46.4738V7.79248ZM51.4836 11.2993C51.4836 11.0737 51.403 10.8979 51.2419 10.772C51.0837 10.646 50.8039 10.5156 50.4025 10.3809C50.0011 10.2461 49.673 10.1157 49.4181 9.98975C48.589 9.58252 48.1745 9.02295 48.1745 8.31104C48.1745 7.95654 48.277 7.64453 48.4821 7.375C48.6901 7.10254 48.9831 6.8916 49.361 6.74219C49.7389 6.58984 50.1637 6.51367 50.6354 6.51367C51.0954 6.51367 51.507 6.5957 51.8703 6.75977C52.2365 6.92383 52.5207 7.1582 52.7228 7.46289C52.925 7.76465 53.026 8.11035 53.026 8.5H51.488C51.488 8.23926 51.4074 8.03711 51.2463 7.89355C51.0881 7.75 50.8727 7.67822 50.6003 7.67822C50.3249 7.67822 50.1066 7.73975 49.9455 7.86279C49.7873 7.98291 49.7082 8.13672 49.7082 8.32422C49.7082 8.48828 49.7961 8.6377 49.9718 8.77246C50.1476 8.9043 50.4567 9.04199 50.8991 9.18555C51.3415 9.32617 51.7048 9.47852 51.9889 9.64258C52.6803 10.041 53.026 10.5903 53.026 11.2905C53.026 11.8501 52.8151 12.2896 52.3932 12.6089C51.9714 12.9282 51.3927 13.0879 50.6574 13.0879C50.1388 13.0879 49.6686 12.9956 49.2467 12.811C48.8278 12.6235 48.5114 12.3687 48.2975 12.0464C48.0866 11.7212 47.9811 11.3477 47.9811 10.9258H49.528C49.528 11.2686 49.6159 11.522 49.7917 11.686C49.9704 11.8472 50.259 11.9277 50.6574 11.9277C50.9123 11.9277 51.113 11.8735 51.2594 11.7651C51.4089 11.6538 51.4836 11.4985 51.4836 11.2993Z" fill="white"/>
</g>
</svg>
