<svg width="60" height="20" viewBox="0 0 60 20" fill="none" xmlns="http://www.w3.org/2000/svg">
<mask id="mask0" mask-type="alpha" maskUnits="userSpaceOnUse" x="0" y="0" width="60" height="20">
<path fill-rule="evenodd" clip-rule="evenodd" d="M0 4C0 1.79086 1.79086 0 4 0H56C58.2091 0 60 1.79086 60 4V16C60 18.2091 58.2091 20 56 20H4C1.79086 20 0 18.2091 0 16V4Z" fill="white"/>
</mask>
<g mask="url(#mask0)">
<rect opacity="0.3" width="60" height="20" fill="black"/>
<path d="M15.2243 13H13.6906L11.423 9.01855V13H9.88051V6.60156H11.423L13.6862 10.583V6.60156H15.2243V13ZM22.3434 6.60156V10.7896C22.3434 11.2642 22.2423 11.6758 22.0402 12.0244C21.838 12.3701 21.548 12.6338 21.1701 12.8154C20.7921 12.9971 20.3454 13.0879 19.8297 13.0879C19.0504 13.0879 18.4367 12.8857 17.9884 12.4814C17.5402 12.0771 17.3117 11.5234 17.3029 10.8203V6.60156H18.8541V10.8511C18.8717 11.5513 19.1969 11.9014 19.8297 11.9014C20.1491 11.9014 20.3908 11.8135 20.5548 11.6377C20.7189 11.4619 20.8009 11.1763 20.8009 10.7808V6.60156H22.3434ZM26.4611 6.60156L27.8893 11.0532L29.3131 6.60156H31.3434V13H29.7965V11.5059L29.9459 8.44727L28.3991 13H27.3795L25.8283 8.44287L25.9777 11.5059V13H24.4352V6.60156H26.4611ZM33.4528 13V6.60156H35.7511C36.5744 6.60156 37.1999 6.75244 37.6276 7.0542C38.0582 7.35596 38.2736 7.79395 38.2736 8.36816C38.2736 8.69922 38.1974 8.98193 38.0451 9.21631C37.8927 9.45068 37.6686 9.62354 37.3727 9.73486C37.7067 9.82275 37.963 9.98682 38.1417 10.2271C38.3205 10.4673 38.4098 10.7603 38.4098 11.106C38.4098 11.7329 38.2106 12.2046 37.8122 12.521C37.4166 12.8345 36.8292 12.9941 36.0499 13H33.4528ZM34.9953 10.2798V11.8135H36.006C36.2843 11.8135 36.4982 11.7505 36.6476 11.6245C36.797 11.4956 36.8717 11.3154 36.8717 11.084C36.8717 10.5508 36.6066 10.2827 36.0763 10.2798H34.9953ZM34.9953 9.26904H35.7995C36.1364 9.26611 36.3766 9.20459 36.5202 9.08447C36.6637 8.96436 36.7355 8.78711 36.7355 8.55273C36.7355 8.2832 36.6579 8.08984 36.5026 7.97266C36.3473 7.85254 36.0968 7.79248 35.7511 7.79248H34.9953V9.26904ZM44.3556 10.2886H41.9298V11.8135H44.7951V13H40.3874V6.60156H44.8039V7.79248H41.9298V9.1416H44.3556V10.2886ZM48.9259 10.7412H48.091V13H46.5485V6.60156H49.0666C49.8253 6.60156 50.4186 6.77002 50.8463 7.10693C51.2741 7.44385 51.4879 7.91992 51.4879 8.53516C51.4879 8.98047 51.3971 9.34961 51.2155 9.64258C51.0368 9.93555 50.7555 10.1729 50.3717 10.3545L51.7077 12.9341V13H50.0553L48.9259 10.7412ZM48.091 9.55029H49.0666C49.3595 9.55029 49.5792 9.47412 49.7257 9.32178C49.8751 9.1665 49.9499 8.95117 49.9499 8.67578C49.9499 8.40039 49.8751 8.18506 49.7257 8.02979C49.5763 7.87158 49.3566 7.79248 49.0666 7.79248H48.091V9.55029Z" fill="white"/>
</g>
</svg>
