<svg width="65" height="20" viewBox="0 0 65 20" fill="none" xmlns="http://www.w3.org/2000/svg">
<mask id="mask0" mask-type="alpha" maskUnits="userSpaceOnUse" x="0" y="0" width="65" height="20">
<path fill-rule="evenodd" clip-rule="evenodd" d="M0 4C0 1.79086 1.79086 0 4 0H61C63.2091 0 65 1.79086 65 4V16C65 18.2091 63.2091 20 61 20H4C1.79086 20 0 18.2091 0 16V4Z" fill="white"/>
</mask>
<g mask="url(#mask0)">
<rect width="65" height="20" fill="#5553CE"/>
<path d="M14.5982 10.6138L15.3321 6.60156H16.8614L15.5035 13H13.9039L13.0469 9.35254L12.2076 13H10.6124L9.25006 6.60156H10.7837L11.5176 10.6138L12.3965 6.60156H13.7061L14.5982 10.6138ZM22.5567 10.2886H20.1309V11.8135H22.9962V13H18.5884V6.60156H23.0049V7.79248H20.1309V9.1416H22.5567V10.2886ZM28.3838 11.8047H26.2701L25.9009 13H24.253L26.5997 6.60156H28.0499L30.4141 13H28.7574L28.3838 11.8047ZM26.6392 10.6138H28.0147L27.3248 8.39453L26.6392 10.6138ZM36.5049 7.79248H34.5845V13H33.042V7.79248H31.1568V6.60156H36.5049V7.79248ZM43.6329 13H42.0992V10.3281H39.8272V13H38.2847V6.60156H39.8272V9.1416H42.0992V6.60156H43.6329V13ZM49.7061 10.2886H47.2803V11.8135H50.1456V13H45.7379V6.60156H50.1544V7.79248H47.2803V9.1416H49.7061V10.2886ZM54.2764 10.7412H53.4415V13H51.899V6.60156H54.417C55.1758 6.60156 55.7691 6.77002 56.1968 7.10693C56.6246 7.44385 56.8384 7.91992 56.8384 8.53516C56.8384 8.98047 56.7476 9.34961 56.566 9.64258C56.3873 9.93555 56.106 10.1729 55.7222 10.3545L57.0582 12.9341V13H55.4058L54.2764 10.7412ZM53.4415 9.55029H54.417C54.71 9.55029 54.9297 9.47412 55.0762 9.32178C55.2256 9.1665 55.3004 8.95117 55.3004 8.67578C55.3004 8.40039 55.2256 8.18506 55.0762 8.02979C54.9268 7.87158 54.7071 7.79248 54.417 7.79248H53.4415V9.55029Z" fill="white"/>
</g>
</svg>
