<svg width="45" height="20" viewBox="0 0 45 20" fill="none" xmlns="http://www.w3.org/2000/svg">
<mask id="mask0" mask-type="alpha" maskUnits="userSpaceOnUse" x="0" y="0" width="45" height="20">
<path fill-rule="evenodd" clip-rule="evenodd" d="M0 4C0 1.79086 1.79086 0 4 0H41C43.2091 0 45 1.79086 45 4V16C45 18.2091 43.2091 20 41 20H4C1.79086 20 0 18.2091 0 16V4Z" fill="white"/>
</mask>
<g mask="url(#mask0)">
<rect opacity="0.3" width="45" height="20" fill="black"/>
<path d="M15.2339 13H13.7002L11.4326 9.01855V13H9.89014V6.60156H11.4326L13.6958 10.583V6.60156H15.2339V13ZM21.3027 10.2886H18.877V11.8135H21.7422V13H17.3345V6.60156H21.751V7.79248H18.877V9.1416H21.3027V10.2886ZM28.4526 10.6138L29.1865 6.60156H30.7158L29.3579 13H27.7583L26.9014 9.35254L26.062 13H24.4668L23.1045 6.60156H24.6382L25.3721 10.6138L26.251 6.60156H27.5605L28.4526 10.6138ZM35.7432 11.2993C35.7432 11.0737 35.6626 10.8979 35.5015 10.772C35.3433 10.646 35.0635 10.5156 34.6621 10.3809C34.2607 10.2461 33.9326 10.1157 33.6777 9.98975C32.8486 9.58252 32.4341 9.02295 32.4341 8.31104C32.4341 7.95654 32.5366 7.64453 32.7417 7.375C32.9497 7.10254 33.2427 6.8916 33.6206 6.74219C33.9985 6.58984 34.4233 6.51367 34.895 6.51367C35.355 6.51367 35.7666 6.5957 36.1299 6.75977C36.4961 6.92383 36.7803 7.1582 36.9824 7.46289C37.1846 7.76465 37.2856 8.11035 37.2856 8.5H35.7476C35.7476 8.23926 35.667 8.03711 35.5059 7.89355C35.3477 7.75 35.1323 7.67822 34.8599 7.67822C34.5845 7.67822 34.3662 7.73975 34.2051 7.86279C34.0469 7.98291 33.9678 8.13672 33.9678 8.32422C33.9678 8.48828 34.0557 8.6377 34.2314 8.77246C34.4072 8.9043 34.7163 9.04199 35.1587 9.18555C35.6011 9.32617 35.9644 9.47852 36.2485 9.64258C36.9399 10.041 37.2856 10.5903 37.2856 11.2905C37.2856 11.8501 37.0747 12.2896 36.6528 12.6089C36.231 12.9282 35.6523 13.0879 34.917 13.0879C34.3984 13.0879 33.9282 12.9956 33.5063 12.811C33.0874 12.6235 32.771 12.3687 32.5571 12.0464C32.3462 11.7212 32.2407 11.3477 32.2407 10.9258H33.7876C33.7876 11.2686 33.8755 11.522 34.0513 11.686C34.23 11.8472 34.5186 11.9277 34.917 11.9277C35.1719 11.9277 35.3726 11.8735 35.519 11.7651C35.6685 11.6538 35.7432 11.4985 35.7432 11.2993Z" fill="white"/>
</g>
</svg>
