<svg width="41" height="40" viewBox="0 0 41 40" fill="none" xmlns="http://www.w3.org/2000/svg">
<path fill-rule="evenodd" clip-rule="evenodd" d="M20.9075 40C31.9532 40 40.9075 31.0457 40.9075 20C40.9075 8.9543 31.9532 0 20.9075 0C9.86184 0 0.907532 8.9543 0.907532 20C0.907532 31.0457 9.86184 40 20.9075 40ZM27.2645 19.388C27.2645 20.7658 27.036 21.9678 26.579 22.9943C26.1221 24.0208 25.4912 24.8444 24.6864 25.465L27.0906 27.3679L24.8705 29.2504L21.6683 26.6722C21.3682 26.7132 21.0681 26.7336 20.768 26.7336C19.4994 26.7336 18.3741 26.4404 17.3919 25.8538C16.4098 25.2672 15.6442 24.4283 15.0951 23.3371C14.5461 22.2458 14.2613 20.9908 14.2409 19.5722V18.7844C14.2409 17.318 14.5086 16.029 15.044 14.9172C15.5794 13.8055 16.3433 12.9461 17.3356 12.3391C18.328 11.7321 19.4653 11.4286 20.7476 11.4286C22.0093 11.4286 23.1347 11.7287 24.1237 12.3289C25.1126 12.9291 25.8816 13.7833 26.4307 14.8916C26.9797 16 27.2577 17.2703 27.2645 18.7026V19.388ZM23.6121 18.764C23.6121 17.2839 23.3649 16.1603 22.8704 15.393C22.3759 14.6256 21.6683 14.242 20.7476 14.242C19.7995 14.242 19.0868 14.6205 18.6094 15.3776C18.1319 16.1347 17.8898 17.243 17.883 18.7026V19.388C17.883 20.8544 18.1251 21.9781 18.6094 22.759C19.0936 23.54 19.8132 23.9304 20.768 23.9304C21.682 23.9304 22.3828 23.5451 22.8704 22.7744C23.3581 22.0037 23.6053 20.8953 23.6121 19.4494V18.764Z" fill="#1875F0"/>
</svg>
