<svg width="29" height="28" viewBox="0 0 29 28" fill="none" xmlns="http://www.w3.org/2000/svg">
<mask id="mask0" mask-type="alpha" maskUnits="userSpaceOnUse" x="6" y="7" width="18" height="15">
<path fill-rule="evenodd" clip-rule="evenodd" d="M23.2514 9.12352C22.6333 9.40514 21.9695 9.59521 21.2716 9.67975C21.9832 9.24252 22.5298 8.55006 22.7877 7.72514C22.1213 8.12952 21.384 8.4246 20.5989 8.58237C19.9698 7.89583 19.074 7.46667 18.082 7.46667C16.1784 7.46667 14.6361 9.04867 14.6361 11.0006C14.6361 11.2774 14.666 11.5477 14.7248 11.8061C11.8602 11.6586 9.3207 10.2516 7.62032 8.11337C7.32415 8.63567 7.154 9.24252 7.154 9.89029C7.154 11.1169 7.76263 12.1981 8.68686 12.8324C8.12235 12.8136 7.59091 12.6553 7.12617 12.3904C7.12565 12.4049 7.12565 12.4205 7.12565 12.4345C7.12565 14.1474 8.31349 15.5759 9.89046 15.9006C9.60164 15.9808 9.29706 16.0244 8.98251 16.0244C8.75985 16.0244 8.54455 16.0024 8.3345 15.9614C8.77246 17.3647 10.0459 18.3867 11.5536 18.4158C10.3746 19.3634 8.88851 19.9294 7.27373 19.9294C6.99541 19.9294 6.72077 19.9127 6.45138 19.8798C7.97636 20.8814 9.78806 21.4667 11.7347 21.4667C18.0741 21.4667 21.5416 16.0815 21.5416 11.4109C21.5416 11.258 21.5373 11.1051 21.531 10.9532C22.2048 10.4551 22.7887 9.83321 23.2514 9.12352Z" fill="white"/>
</mask>
<g mask="url(#mask0)">
<rect x="2.71805" y="1.8667" width="24.2667" height="24.2667" fill="#D8D8D8"/>
</g>
</svg>
